<svg height="512" viewBox="0 0 510 510" width="512" xmlns="http://www.w3.org/2000/svg" xmlns:xlink="http://www.w3.org/1999/xlink"><linearGradient id="b" gradientUnits="userSpaceOnUse" x1="68.22" x2="452.68" y1="24.08" y2="408.54"><stop offset="0" stop-color="#b5dbff"/><stop offset="1" stop-color="#76e2f8"/></linearGradient><linearGradient id="c" gradientUnits="userSpaceOnUse" x1="505.87" x2="165.7" y1="467.85" y2="127.68"><stop offset="0" stop-color="#b5dbff" stop-opacity="0"/><stop offset=".24" stop-color="#93cef6" stop-opacity=".24"/><stop offset=".58" stop-color="#6abfec" stop-opacity=".58"/><stop offset=".84" stop-color="#51b5e5" stop-opacity=".84"/><stop offset="1" stop-color="#48b2e3"/></linearGradient><linearGradient id="d" gradientUnits="userSpaceOnUse" x1="189.23" x2="338.66" y1="154.92" y2="304.35"><stop offset="0" stop-color="#edf5ff"/><stop offset="1" stop-color="#d5e8fe"/></linearGradient><linearGradient id="a"><stop offset="0" stop-color="#b5dbff" stop-opacity="0"/><stop offset=".17" stop-color="#8fc5e9" stop-opacity=".17"/><stop offset=".45" stop-color="#56a4c8" stop-opacity=".45"/><stop offset=".7" stop-color="#2d8db1" stop-opacity=".7"/><stop offset=".89" stop-color="#147ea2" stop-opacity=".89"/><stop offset="1" stop-color="#0b799d"/></linearGradient><linearGradient id="e" gradientUnits="userSpaceOnUse" x1="301.33" x2="-5.66" xlink:href="#a" y1="263.59" y2="116.23"/><linearGradient id="f" gradientUnits="userSpaceOnUse" x1="418.77" x2="313.71" xlink:href="#a" y1="323.18" y2="243.36"/><linearGradient id="g" gradientUnits="userSpaceOnUse" x1="401.09" x2="225.99" xlink:href="#a" y1="398.05" y2="222.95"/><linearGradient id="h" gradientUnits="userSpaceOnUse" x1="193.6" x2="320.84" y1="190.57" y2="317.8"><stop offset="0" stop-color="#b9dd39"/><stop offset="1" stop-color="#90cc1c"/></linearGradient><linearGradient id="i" gradientUnits="userSpaceOnUse" x1="374.99" x2="327.67" y1="329.25" y2="281.93"><stop offset="0" stop-color="#6b0" stop-opacity="0"/><stop offset="1" stop-color="#6b0"/></linearGradient><linearGradient id="j" gradientUnits="userSpaceOnUse" x1="243.38" x2="375.17" y1="154.88" y2="286.66"><stop offset="0" stop-color="#0b799d"/><stop offset="1" stop-color="#07485e"/></linearGradient><path d="M446.17 67.94a244.38 244.38 0 01-154.23-54.81 58.54 58.54 0 00-73.88 0A244.37 244.37 0 0163.83 67.94a31.76 31.76 0 00-31.76 31.77v85.13a362.95 362.95 0 00133.9 281.54l26.14 21.27a99.65 99.65 0 00125.78 0l26.15-21.27a362.96 362.96 0 00133.9-281.55V99.7a31.76 31.76 0 00-31.77-31.76z" fill="url(#b)"/><path d="M255 481.97a26.8 26.8 0 01-16.86-6l-50.01-40.68c-36.53-29.71-66.53-67.9-86.75-110.43s-30.92-89.89-30.92-136.98v-67.56a15.8 15.8 0 0114.85-15.55 264.92 264.92 0 00152.82-58.86 26.8 26.8 0 0116.87-6 26.8 26.8 0 0116.86 6 264.93 264.93 0 00152.84 58.86 15.8 15.8 0 0114.84 15.55v67.56c0 47.09-10.7 94.46-30.92 136.98a320.94 320.94 0 01-86.74 110.43l-50.01 40.69a26.8 26.8 0 01-16.87 6z" fill="url(#c)"/><path d="M255 463.32c-5.6 0-11.1-1.95-15.44-5.49l-45.8-37.25c-33.44-27.2-60.9-62.17-79.42-101.1s-28.3-82.32-28.3-125.43v-61.86c0-7.48 6.11-13.84 13.59-14.24a242.56 242.56 0 00139.93-53.9A24.54 24.54 0 01255 58.57c5.6 0 11.1 1.94 15.44 5.48a242.57 242.57 0 00139.93 53.9c7.48.4 13.6 6.76 13.6 14.24v61.85c0 43.12-9.8 86.5-28.31 125.43s-45.98 73.9-79.43 101.11l-45.79 37.25a24.53 24.53 0 01-15.44 5.5z" fill="url(#d)"/><path d="M477.93 99.7a31.76 31.76 0 00-31.76-31.76 244.38 244.38 0 01-154.23-54.81A58.43 58.43 0 00255 0v510a99.47 99.47 0 0062.89-22.35l26.15-21.27a362.96 362.96 0 00133.9-281.55l-.01-85.13z" fill="url(#e)"/><path d="M421.43 148.41c-10-9.99-26.2-7.94-36.18 2.05L260.6 275.1c-1.22 1.21-4.65 3.51-5.6 3.51s-2.33-.25-3.55-1.47l-47.78-47.78c-10-9.99-25.17-9.99-35.16 0-9.99 10-11.01 24.14-1.02 34.13l190.72 190.72a362.96 362.96 0 00119.18-249.65z" fill="url(#f)"/><path d="M344.04 466.38A362.94 362.94 0 00466.16 276.5L350.87 161.23C326.81 135.82 292.76 122 255 122a129.75 129.75 0 00-129.96 129.96c0 37.76 13.8 71.8 39.22 95.87L302.82 486.4a11.68 11.68 0 0015.63.8z" fill="url(#g)"/><circle cx="255" cy="251.97" fill="url(#h)" r="132.01"/><path d="M361.6 174.1l-101 101c-1.22 1.22-4.65 3.52-5.6 3.52s-2.33-.25-3.55-1.47l-47.78-47.78c-10-9.99-25.17-9.99-35.16 0-9.99 10-11.01 24.14-1.02 34.13l117.13 117.13c58.64-13.44 102.39-65.94 102.39-128.66a131.4 131.4 0 00-25.41-77.87z" fill="url(#i)"/><path d="M255 327.74c-15 0-29.12-5.84-39.73-16.45l-47.78-47.78a25.58 25.58 0 1136.18-36.18l47.78 47.78c1.22 1.21 2.6 1.47 3.55 1.47s2.33-.26 3.55-1.47l126.7-126.7a25.58 25.58 0 0136.18 36.18l-126.7 126.7A55.82 55.82 0 01255 327.73z" fill="url(#j)"/></svg>